<?xml version="1.0" encoding="UTF-8" standalone="no"?>
<!-- Created with Inkscape (http://www.inkscape.org/) -->

<svg
   width="160"
   height="64"
   viewBox="0 0 42.333334 16.933334"
   version="1.1"
   id="svg1"
   xml:space="preserve"
   xmlns="http://www.w3.org/2000/svg"
   xmlns:svg="http://www.w3.org/2000/svg"><defs
     id="defs1" /><g
     id="layer1"
     style="display:inline;fill:#3b82f6;fill-opacity:1;stroke:#3b82f6;stroke-opacity:1"><g
       id="g1006"
       style="fill:#3b82f6;fill-opacity:1;stroke:#3b82f6;stroke-width:0.0987651;stroke-dasharray:none;stroke-opacity:1"
       transform="matrix(0.80427201,0,0,0.80307847,-31.459472,-29.56749)"><path
         d="m 48.147147,45.959913 c 0,3.386667 0.141111,4.903612 0.529167,5.644445 0.493889,0.9525 1.375833,1.516945 2.046111,1.305278 0.282222,-0.07056 0.388056,-3.633611 0.282222,-7.866945 -0.03528,-1.975556 -0.705555,-3.104445 -2.046111,-3.4925 l -0.811389,-0.211667 z"
         id="path1"
         style="fill:#3b82f6;fill-opacity:1;stroke:#3b82f6;stroke-width:0.0987651;stroke-dasharray:none;stroke-opacity:1" /><path
         d="m 75.311038,45.924635 c 0,5.185834 0.246944,6.138334 1.728611,6.914445 l 1.058333,0.529167 0.105834,-2.187222 0.105833,-2.2225 0.987778,1.834444 c 0.9525,1.834445 1.023055,1.905 3.527778,2.398889 0.846666,0.176389 0.776111,-0.105833 -0.811389,-2.998611 -0.776111,-1.411111 -1.411111,-2.751667 -1.411111,-2.998611 0,-0.211667 0.458611,-0.846667 1.058333,-1.411112 0.564444,-0.564444 0.9525,-1.093611 0.881944,-1.199444 -0.105833,-0.105834 -1.128888,0.776111 -2.293055,1.905 l -2.116667,2.081389 v -2.681111 c 0,-2.892778 -0.458611,-3.880556 -2.010833,-4.339167 l -0.811389,-0.211667 z"
         id="path2"
         style="fill:#3b82f6;fill-opacity:1;stroke:#3b82f6;stroke-width:0.0987651;stroke-dasharray:none;stroke-opacity:1" /><path
         d="m 39.327702,44.866302 c 0.03528,0.105833 1.164167,1.869722 2.575278,3.915834 2.328333,3.351389 2.681111,3.704166 4.092222,4.1275 0.881945,0.246944 1.622778,0.388055 1.693334,0.3175 0.07055,-0.07056 -0.3175,-0.811389 -0.881945,-1.658056 -0.564444,-0.846666 -1.622778,-2.469444 -2.363611,-3.598333 -0.705555,-1.128889 -1.658056,-2.2225 -2.046111,-2.434167 -0.9525,-0.493889 -3.069167,-0.987778 -3.069167,-0.670278 z"
         id="path3"
         style="fill:#3b82f6;fill-opacity:1;stroke:#3b82f6;stroke-width:0.0987651;stroke-dasharray:none;stroke-opacity:1" /><path
         d="m 45.783536,45.501302 c -0.987778,1.375833 -1.234723,1.869722 -1.023056,1.869722 0.3175,0 2.081389,-2.469444 1.869722,-2.681111 -0.07055,-0.105833 -0.493888,0.246945 -0.846666,0.811389 z"
         id="path4"
         style="fill:#3b82f6;fill-opacity:1;stroke:#3b82f6;stroke-width:0.0987651;stroke-dasharray:none;stroke-opacity:1" /><path
         d="m 52.239369,45.289635 c -0.493888,0.388056 -0.917222,0.881945 -0.917222,1.128889 0,0.211667 0.211667,0.105834 0.458611,-0.246944 0.246945,-0.352778 0.776112,-0.599722 1.164167,-0.493889 0.564445,0.105833 0.705556,0.493889 0.846667,2.998611 0.176389,2.998612 0.705555,4.056945 2.151944,4.445001 0.635,0.176388 0.670278,-0.03528 0.670278,-3.316112 0,-3.280833 -0.07055,-3.598333 -0.881944,-4.374445 -1.058334,-1.058333 -2.257778,-1.128888 -3.492501,-0.141111 z"
         id="path5"
         style="fill:#3b82f6;fill-opacity:1;stroke:#3b82f6;stroke-width:0.0987651;stroke-dasharray:none;stroke-opacity:1" /><path
         d="m 58.801037,45.113246 c -0.423334,0.282223 -0.776112,0.740834 -0.776112,1.023056 0,0.3175 0.3175,0.211667 0.881945,-0.352778 0.9525,-0.987778 2.328333,-1.128889 2.998611,-0.352778 0.282222,0.317501 0.493889,1.658056 0.529167,3.104445 0.03528,1.411111 0.176389,2.786945 0.3175,3.104445 0.282222,0.635 2.2225,1.834444 2.398889,1.481667 0.07056,-0.176389 0.07056,-1.834445 -0.07056,-3.739445 C 64.93937,46.277413 64.798259,45.818802 64.057426,45.21908 63.03437,44.372413 59.965203,44.301858 58.801037,45.113246 Z"
         id="path6"
         style="fill:#3b82f6;fill-opacity:1;stroke:#3b82f6;stroke-width:0.0987651;stroke-dasharray:none;stroke-opacity:1" /><path
         d="m 70.089926,45.113246 c -0.9525,0.635001 -1.058333,1.375834 -0.105833,0.811389 0.352778,-0.246944 0.917222,-0.3175 1.234722,-0.211666 0.458611,0.176389 0.564445,0.776111 0.564445,3.175 0,3.139722 0.352777,3.915834 1.940278,4.198056 0.635,0.105833 0.705555,-0.105834 0.811388,-2.54 0.141112,-3.351389 -0.352777,-5.221112 -1.552222,-5.644445 -1.27,-0.493889 -1.975556,-0.423334 -2.892778,0.211666 z"
         id="path7"
         style="fill:#3b82f6;fill-opacity:1;stroke:#3b82f6;stroke-width:0.0987651;stroke-dasharray:none;stroke-opacity:1" /><path
         d="m 84.941872,45.395469 c -0.529167,0.458611 -0.881945,0.9525 -0.776112,1.093611 0.141111,0.105833 0.635,-0.176389 1.128889,-0.670278 0.987778,-0.987778 2.398889,-1.199444 2.998612,-0.493889 0.176389,0.246945 0.423333,1.763889 0.458611,3.316111 0.141111,3.03389 0.635,4.092223 2.116667,4.480279 0.635,0.176388 0.670277,-0.03528 0.670277,-2.928056 0,-1.728611 -0.176389,-3.527778 -0.388055,-3.986389 -0.846667,-1.834445 -4.480278,-2.293056 -6.208889,-0.811389 z"
         id="path8"
         style="fill:#3b82f6;fill-opacity:1;stroke:#3b82f6;stroke-width:0.0987651;stroke-dasharray:none;stroke-opacity:1" /><path
         d="m 66.138815,48.182413 c 0,3.598334 0.388055,4.62139 1.905,4.903612 0.881944,0.176389 0.881944,0.176389 0.987778,-2.963334 0.07055,-1.728611 -0.03528,-3.421944 -0.211667,-3.739444 -0.423333,-0.846667 -1.305278,-1.481667 -2.046111,-1.481667 -0.564445,0 -0.635,0.352778 -0.635,3.280833 z"
         id="path9"
         style="fill:#3b82f6;fill-opacity:1;stroke:#3b82f6;stroke-width:0.0987651;stroke-dasharray:none;stroke-opacity:1" /><path
         d="m 59.436037,48.817413 c -1.940278,0.776112 -2.786945,2.681112 -1.693334,3.774723 0.740834,0.740833 2.892778,0.493889 3.739445,-0.388056 0.987778,-1.023055 1.023055,-1.622778 0.07055,-0.776111 -0.670277,0.599722 -0.776111,0.599722 -1.27,0.105833 -0.740833,-0.740833 -0.352777,-1.905 0.846667,-2.575277 l 0.9525,-0.493889 h -0.881944 c -0.493889,0 -1.27,0.176388 -1.763889,0.352777 z"
         id="path10"
         style="fill:#3b82f6;fill-opacity:1;stroke:#3b82f6;stroke-width:0.0987651;stroke-dasharray:none;stroke-opacity:1" /><path
         d="m 85.717983,48.923247 c -1.5875,0.705555 -2.398889,1.763889 -2.116667,2.751667 0.352778,1.023055 0.811389,1.340555 2.046111,1.340555 1.27,0 2.257778,-0.529167 2.751667,-1.516944 0.423333,-0.776111 0.423333,-0.776111 -0.3175,-0.105834 -1.622778,1.446389 -2.54,-0.529166 -0.9525,-2.081389 0.705555,-0.740833 0.740833,-0.881944 0.246944,-0.881944 -0.3175,0.03528 -1.058333,0.246944 -1.658055,0.493889 z"
         id="path11"
         style="fill:#3b82f6;fill-opacity:1;stroke:#3b82f6;stroke-width:0.0987651;stroke-dasharray:none;stroke-opacity:1" /><path
         d="m 40.95048,51.392691 c -1.234722,1.481667 -1.622778,2.2225 -0.917222,1.799167 0.423333,-0.246944 2.575278,-3.351389 2.328333,-3.351389 -0.07055,0 -0.740833,0.705556 -1.411111,1.552222 z"
         id="path12"
         style="fill:#3b82f6;fill-opacity:1;stroke:#3b82f6;stroke-width:0.0987651;stroke-dasharray:none;stroke-opacity:1" /></g></g></svg>
